<svg xmlns="http://www.w3.org/2000/svg" width="926.122" height="680.338">
  <defs>
    <style>
      .cls-11,.cls-13,.cls-14,.cls-15,.cls-19,.cls-2,.cls-20,.cls-22,.cls-24,.cls-25,.cls-27,.cls-28,.cls-3,.cls-30,.cls-31,.cls-33,.cls-34,.cls-35,.cls-4,.cls-43,.cls-5,.cls-57,.cls-58,.cls-59,.cls-6,.cls-60,.cls-61,.cls-62,.cls-63,.cls-64,.cls-65,.cls-68,.cls-70,.cls-8{fill-rule:evenodd}.cls-2{fill:#f5effc}.cls-3{fill:#e5dbf2}.cls-4{fill:#ccabeb}.cls-5{fill:#73499b}.cls-6{fill:#8a52bf}.cls-27,.cls-7{fill:#fff}.cls-8{fill:#360a61}.cls-9{fill:#faf9fa}.cls-11{fill:#cc8f4e}.cls-13{fill:#f7c486}.cls-14{fill:#ed7f57;opacity:.541}.cls-15{fill:#451f1f}.cls-19{fill:#ffd39e}.cls-20{fill:#633}.cls-22{fill:#fff8ed}.cls-30,.cls-31{opacity:.257}.cls-24{fill:#ffc042}.cls-25{fill:#ffe9b0}.cls-28{fill:#f5930a}.cls-30{fill:#f08d69}.cls-31{fill:#cf4c3e}.cls-33{fill:#699}.cls-35{fill:#421818}.cls-43{fill:#b34230}.cls-57{fill:#f5e067}.cls-58{fill:#fab24d}.cls-59{fill:#e37210}.cls-60{fill:#ffb700}.cls-61{fill:#ffe270}.cls-62{fill:#f7d38c}.cls-63{fill:#e89c4b}.cls-64{fill:#d46d2d}.cls-65{fill:#ad4621}.cls-68{fill:#d16327}.cls-70{fill:#fff0c4}
    </style>
  </defs>
  <g id="Group_337" transform="translate(-724 225)">
    <g id="Group_336" transform="translate(724 -225)">
      <path id="Path_1035" fill="#f9f6fb" fill-rule="evenodd" d="M358.975 624.921v-.01l.541-.179-.541.189m513.518-17.307c10.735-13.359 26.428-25.665 47.015-37.514 93.512-54.6 85.874-153.09-3.149-216.412-24.669-17.309-35.321-41.436-45.022-87.558Q816.362 29.274 384.648 55.544C212.487 66.8 109.242 159.855 142.784 235.462c18.427 42.5 10.41 76.175-19.812 101.028-73.447 59.338-82.954 161.859-25.144 242.987q5.119 7.011 10.408 13.4a107.048 107.048 0 0122.689 8.057l58.84 28.665q3.522 1.088 7.007 2.429 1.383.39 2.761.82a107.1 107.1 0 0122.59 3.1h27.891l-7.387 7.387q2.492 1.2 4.934 2.539a105.984 105.984 0 0131.9-10.259 106.551 106.551 0 0135.3-5.985h1.629a106.557 106.557 0 0128.746-4.7 107.7 107.7 0 0118.632-1.615 106.479 106.479 0 0126.765-4.633A107.382 107.382 0 01409.512 617h33.165c8.339 0 16.483 1.211 24.726 2.259a107.4 107.4 0 0113.8 2.508l6.316 1.579c3.2.8 6.285 1.775 9.383 2.8a108.1 108.1 0 0113 2.861l8.869 2.534a105.9 105.9 0 0112.038 3.946A107.023 107.023 0 01554.964 642l7.9 3.159 2.462.985 22.789 6.329c2.02.562 4 1.188 5.988 1.852l3.641.728 7.779 1.3c6.156 1.027 11.6 3.511 17.734 4.535l1.979.33c6.678 1.112 13.058.333 19.768 1.452l8.252 1.376c10.483 1.747 20.986 3.115 31.493 4.731 3.327.511 6.619 1.306 9.935 1.9a105.98 105.98 0 0117.531 1.595h28.4a106.871 106.871 0 01131.885-64.66z" transform="translate(-60.322 -52.819)"/>
      <path id="Path_1036" d="M263.61 274.476c32.784 295.294 144.6 529.8 283.079 136.5q99.069-85.716 60.269-189.954c-7.8-19.746-14.251-20.813-31.017-8.682a166.614 166.614 0 00-73.456 111.92 300.794 300.794 0 00-34.419-177.081c-10.937-19.652-20.753-18.092-37.884.428a208 208 0 00-51.959 195.564c-17.032-47.051-46.675-90.983-87.927-117.662q-32.642-18.209-26.686 48.967" class="cls-2" transform="translate(58.392 -5.802)"/>
      <path id="Path_1037" d="M444.622 337.752c19.179 142.679 84.642 168.877 169.929 81.941q59.47-51.454 36.18-114.027c-4.684-11.852-8.555-12.495-18.619-5.212a100.023 100.023 0 00-44.1 67.184 180.558 180.558 0 00-20.661-106.3c-6.565-11.8-12.458-10.86-22.741.257a124.86 124.86 0 00-31.19 117.394c-10.224-28.243-28.02-54.615-52.784-70.63q-19.594-10.933-16.018 29.392" class="cls-2" transform="translate(164.793 64.474)"/>
      <path id="Path_1038" d="M378.65 380.679c42.739 128.28 107.74 140.962 171.173 45.779q45.84-57.916 13.367-111.562c-6.4-10.113-10.086-10.026-18.094-1.541a93.938 93.938 0 00-28.896 69.729 169.589 169.589 0 00-37.722-94.453c-8.128-9.732-13.4-7.835-20.939 4.228a117.274 117.274 0 00-8.173 113.793c-14.392-24.266-35.439-45.476-61.1-55.906q-20-6.647-9.621 29.933" class="cls-3" transform="translate(124.336 81.804)"/>
      <path id="Path_1039" d="M223.318 317.008c41.715 225.243 147.816 261.722 276.513 116.843q90.461-86.458 48.521-184.067c-8.376-18.468-14.579-19.184-30-6.818a159.15 159.15 0 00-64.788 110.246 287.32 287.32 0 00-41.2-167.313c-11.363-18.23-20.655-16.279-36.123 2.2a198.684 198.684 0 00-40.326 189.027c-18.473-44.083-48.83-84.594-89.447-108.1q-32-15.831-23.144 47.976" class="cls-3" transform="translate(34.169 17.733)"/>
      <path id="Path_1040" d="M286.427 327.987c9.386 144 73.056 174.693 164.312 93.606q63.006-47.375 44.008-111.549c-3.87-12.174-7.7-13.082-18.262-6.489a100.258 100.258 0 00-48.709 64.161 180.991 180.991 0 00-13.366-107.724c-5.756-12.247-11.714-11.716-22.76-1.3A125.157 125.157 0 00352.4 373.95c-8.287-28.948-24.272-56.543-47.938-74.259q-18.844-12.278-18.037 28.3" class="cls-4" transform="translate(72.297 63.285)"/>
      <path id="Path_1041" d="M450.45 372.015c9.388 144 73.056 174.693 164.314 93.607q63-47.375 44.008-111.551c-3.871-12.174-7.7-13.082-18.264-6.489a100.261 100.261 0 00-48.708 64.162 181 181 0 00-13.366-107.722c-5.756-12.249-11.714-11.716-22.76-1.3a125.164 125.164 0 00-39.25 115.26c-8.285-28.948-24.272-56.542-47.937-74.257q-18.847-12.281-18.038 28.294" class="cls-4" transform="translate(168.516 89.113)"/>
      <path id="Path_1042" d="M140.393 275.454l228.748-90.9a36.14 36.14 0 01-15.768 65.5 31.244 31.244 0 01-26.073 41.841 28.018 28.018 0 01-29.716 35.782 22.522 22.522 0 01-40.632 10.916 32.164 32.164 0 01-57.325 8.731q-83.893-19.351-59.23-71.869" class="cls-3" transform="translate(-16.638 24.4)"/>
      <path id="Path_1043" d="M125.307 378.743q5.548 1.287 10.873 2.4a109.131 109.131 0 0047.27 20.757c-26.2-2-53.628 2.716-75.3 16.709q-15.762 11.7 17.684 23.341Q294.9 481.2 260.237 359.365q14.006-28.909-8.5-86.693-19.661-65.924-77.935-69.838c-11.137-.525-13.04 2.331-10.849 12.975a87.5 87.5 0 0029.743 53.263q-3.087-.85-6.312-1.48a157.942 157.942 0 00-77.9-14.2c-11.766.995-13.139 6.032-7.968 18.229a109.18 109.18 0 0033.636 45.141A157.907 157.907 0 00109 316.6c-11.766 1-13.139 6.032-7.968 18.229a109.18 109.18 0 009.636 18.689q-1.542.914-3.05 1.887-15.762 11.7 17.684 23.341" class="cls-4" transform="translate(-38.425 35.088)"/>
      <path id="Path_1044" d="M239.187 268.186c-11.311 110.746 33.191 142.252 113 92.262q54-27.967 47.77-79.217c-1.385-9.758-4.181-10.938-13.061-7.278a77.342 77.342 0 00-45.274 42.567 139.628 139.628 0 003.635-83.659c-2.808-10.054-7.408-10.413-17.145-3.908a96.55 96.55 0 00-44.627 82.65c-2.594-23.082-11.219-46.122-26.952-62.63q-12.761-11.757-17.347 19.212" class="cls-4" transform="translate(43.583 47.888)"/>
      <path id="Path_1045" d="M103.878 402.442q5.55 1.288 10.873 2.4a109.183 109.183 0 0047.272 20.758c-26.2-2-53.629 2.716-75.3 16.709Q70.957 454 104.4 465.646q169.063 39.255 134.4-82.582 14.008-28.909-8.5-86.693-19.663-65.922-77.936-69.838c-11.135-.525-13.039 2.332-10.848 12.977a87.489 87.489 0 0029.741 53.263q-3.087-.85-6.31-1.48a157.968 157.968 0 00-77.9-14.2c-11.768 1-13.139 6.032-7.968 18.229a109.147 109.147 0 0033.636 45.143 157.909 157.909 0 00-25.142-.167c-11.768.995-13.139 6.031-7.968 18.229a109.293 109.293 0 009.634 18.689q-1.542.914-3.048 1.885-15.765 11.7 17.683 23.341" class="cls-5" transform="translate(-50.996 48.991)"/>
      <path id="Path_1046" d="M285.067 294.085c-24.191 108.661 16.317 145.158 101.433 104.85q56.9-21.455 56.712-73.083c-.233-9.853-2.872-11.352-12.12-8.757a77.34 77.34 0 00-49.944 36.978 139.627 139.627 0 0013.4-82.658c-1.612-10.315-6.14-11.21-16.571-5.888a96.55 96.55 0 00-53.991 76.861c.125-23.228-5.745-47.118-19.438-65.355q-11.3-13.168-19.476 17.051" class="cls-6" transform="translate(67.458 70.023)"/>
      <path id="Path_1047" d="M381.384 329.843q-58.775 45.857 6.5 49.795 13.249-10.791 6.269-29.862a31.579 31.579 0 011.3-34.1q-5.464 4.258-14.072 14.165m-72.469 15.811q12.014 47.318 62.475-18.262-4.967-3.9-25.883-11.332a27.912 27.912 0 01-15.936-33.36 102.36 102.36 0 00-20.653 62.956z" class="cls-6" transform="translate(85.503 81.974)"/>
      <path id="Path_1048" d="M353.752 272.3a1.726 1.726 0 013.181 1.341q-15.712 37.208-24.4 62.946-8.646 25.618-10.3 39.777a1.729 1.729 0 01-3.435-.392q1.7-14.508 10.465-40.487 8.727-25.86 24.49-63.184" class="cls-7" transform="translate(91.299 75.251)"/>
      <path id="Path_1049" d="M396.852 301.876a1.727 1.727 0 012.8 2.025q-23.69 32.712-37.952 55.832-14.194 23.012-19 36.434a1.728 1.728 0 11-3.257-1.157q4.922-13.751 19.315-37.089 14.33-23.228 38.093-56.044" class="cls-7" transform="translate(103.358 92.804)"/>
      <path id="Path_1050" d="M297.278 322.789c-22.1 99.253 14.9 132.589 92.646 95.772q51.973-19.6 51.8-66.756c-.213-9-2.623-10.369-11.07-8a70.647 70.647 0 00-45.62 33.774 127.535 127.535 0 0012.239-75.5c-1.472-9.421-5.609-10.238-15.136-5.379a88.19 88.19 0 00-49.315 70.206c.113-21.216-5.249-43.039-17.756-59.7q-10.32-12.031-17.789 15.574" class="cls-8" transform="translate(74.973 88.475)"/>
      <path id="Path_1051" d="M294.859 336.664q28.538 17.559 33.776 14.54a29.666 29.666 0 00-26.2-26.2 6.863 6.863 0 01-6.335-7.219 28.806 28.806 0 00-1.242 18.878" class="cls-8" transform="translate(76.655 102.556)"/>
      <path id="Path_1052" d="M318.869 356.87q4.505 36.513 48.436-7.743-3.346-3.382-18.279-10.921a21.034 21.034 0 01-8.758-26.447 77.14 77.14 0 00-21.4 45.111" class="cls-8" transform="translate(91.347 99.021)"/>
      <path id="Path_1053" d="M360.708 349.407q-46.509 40.887 7.811 40.978 10.462-9.594 3.746-25.069a26.234 26.234 0 01-.579-28.34 92.525 92.525 0 00-10.978 12.431" class="cls-8" transform="translate(103.306 113.814)"/>
      <path id="Path_1054" d="M367.708 299.235a1.726 1.726 0 113.08 1.561q-18.283 36.013-28.754 61.077-10.422 24.949-13.069 38.958a1.729 1.729 0 01-3.4-.635q2.713-14.351 13.282-39.651 10.519-25.184 28.861-61.31" class="cls-7" transform="translate(95.259 91.118)"/>
      <path id="Path_1055" d="M402.878 329.6a1.726 1.726 0 112.65 2.213Q379.62 362.8 363.784 384.87q-15.76 21.969-21.488 35.023a1.729 1.729 0 01-3.17-1.38q5.867-13.375 21.851-35.655 15.912-22.176 41.9-53.257" class="cls-7" transform="translate(103.146 109.124)"/>
      <path id="Path_1056" d="M301.008 304.573a1.726 1.726 0 113.451-.1q1.145 40.373 3.921 67.393 2.763 26.9 7.13 40.467a1.729 1.729 0 01-3.289 1.068q-4.474-13.9-7.276-41.179-2.789-27.15-3.936-67.649" class="cls-7" transform="translate(80.869 93.763)"/>
      <path id="Path_1057" d="M199.027 351.3q30.606 3.163 40.137 3.143c2-20.859 3.433-45.528-3.765-71.79-6.629-23.506-15.771-22.865-25.867-.282Q192.606 320.7 199.027 351.3" class="cls-6" transform="translate(20.009 71.724)"/>
      <path id="Path_1058" d="M199.715 318.134q1.573 17.021 36.9 2.921l-.108-6c-4.4-18.6-28.224-18.93-26.595-35.95a143.38 143.38 0 00-10.194 39.032" class="cls-8" transform="translate(21.449 79.863)"/>
      <path id="Path_1059" d="M214.55 274.024a1.73 1.73 0 013.459.086q-.6 21.488-1.7 39.389-1.1 17.842-2.688 31.825a1.728 1.728 0 01-3.435-.382q1.587-13.961 2.677-31.651 1.085-17.631 1.685-39.266" class="cls-7" transform="translate(27.586 75.895)"/>
      <path id="Path_1060" d="M211.988 348.941q28.669 11.167 37.866 13.674c7.459-19.58 15.382-42.986 15.406-70.218-.159-24.421-9.144-26.228-24.866-7.132q-26.486 32.469-28.407 63.676" class="cls-6" transform="translate(28.649 75.896)"/>
      <path id="Path_1061" d="M217.545 318.683q-3 16.828 34.8 12.6s.5-1.939 1.488-5.817a33.443 33.443 0 01-16.111-41.715 143.366 143.366 0 00-20.179 34.933" class="cls-8" transform="translate(31.779 82.59)"/>
      <path id="Path_1062" d="M246.8 280.51a1.73 1.73 0 113.313 1q-6.273 20.56-12.084 37.528-5.791 16.912-11.029 29.973a1.728 1.728 0 01-3.21-1.28q5.231-13.04 10.973-29.808 5.721-16.712 12.038-37.413" class="cls-7" transform="translate(35.497 79.967)"/>
      <path id="Path_1063" d="M93.854 426.136Q278.3 468.963 220.279 320.065q-19.661-65.924-77.935-69.838c-11.137-.525-13.039 2.332-10.848 12.975a87.483 87.483 0 0037.731 59.314 157.951 157.951 0 00-92.2-21.729c-11.768 1-13.14 6.032-7.97 18.229a109.222 109.222 0 0082.415 67.07c-26.2-2-53.629 2.716-75.3 16.709q-15.762 11.7 17.684 23.341" class="cls-8" transform="translate(-56.876 62.89)"/>
      <path id="Path_1064" d="M114.336 258.935a1.729 1.729 0 112.4-2.493l55.854 53.918a1.729 1.729 0 01-2.4 2.493z" class="cls-9" transform="translate(-28.948 66.288)"/>
      <path id="Path_1065" d="M80.721 390.2a1.726 1.726 0 11.26-3.443q40.273 3.072 67.436 3.13 27.038.06 40.99-2.87a1.729 1.729 0 01.719 3.383q-14.294 3-41.714 2.942-27.293-.057-67.692-3.142m-5.8-98.06a1.727 1.727 0 111.937-2.859q33.419 22.681 56.963 36.229 23.435 13.485 37 17.878a1.729 1.729 0 11-1.057 3.292q-13.894-4.5-37.66-18.176-23.658-13.615-57.181-36.366z" class="cls-9" transform="translate(-52.203 85.659)"/>
      <path id="Path_1067" d="M175.545 211.378l228.748-90.9a36.141 36.141 0 01-15.766 65.5 31.244 31.244 0 01-26.078 41.844 28.016 28.016 0 01-29.716 35.78 22.522 22.522 0 01-40.633 10.916 32.166 32.166 0 01-57.326 8.731q-83.893-19.354-59.23-71.871" class="cls-4" transform="translate(3.983 -13.188)"/>
      <path id="Path_1068" d="M750.414 542c43.47-11.173 64.829-30.019 62.591-56.814a78.442 78.442 0 01.2-18.616 11.972 11.972 0 01-3.154-8.109v-4.7a309.967 309.967 0 001.119-6.313 890.952 890.952 0 011.858-6.7q.157-.555.362-1.087c.037-.127.075-.255.116-.381a11.92 11.92 0 012.091-4.866c.073-.146.146-.292.224-.436a12 12 0 011.318-2.226 11.874 11.874 0 01.731-1.095c.13-.222.268-.438.411-.649a21.387 21.387 0 011.418-1.993c.094-.184.194-.365.3-.543l-.01-.013-.274-.274a29.789 29.789 0 01-4.327-6.228 12.015 12.015 0 01-2.248-1.79 19.484 19.484 0 01-3.226-1.495l-2.407-1.506c-.939-.47-1.929-.927-2.843-1.434l-1.333-.732a11.934 11.934 0 01-4.181-1.28l-.5-.251-1.358-.452c-.582-.194-1.179-.378-1.749-.6l.34.136a12.647 12.647 0 01-3.142-.362h-15.405c-.519.1-1.028.211-1.553.275a12.051 12.051 0 01-3.156.451l-.631.125a13.881 13.881 0 01-2.789.233 11.993 11.993 0 01-4.987 1.085h-3.23l-.747.094-1.568.587a11.967 11.967 0 01-4.466.765h-.73a17.032 17.032 0 01-2.142.332l-4.636.332-1.655.235-2.8.623a11.972 11.972 0 01-2.6.286h-9.4c-.267 0-.533-.008-.8-.027q-5.274-.35-10.54-.727a11.826 11.826 0 01-1.606-.224l-1.7-.34a12.038 12.038 0 01-3.015-1.034l-2.169-1.085a11.956 11.956 0 01-4.36-3.7 397.2 397.2 0 01-49.877 1.839q-18.825-4.826-49.263-4.725-15.743-2.344-42-9.856-6.742-2.206-16.2-5.112l-.048-.03c-4.049-1.253-8.109-2.458-12.168-3.675l.027.019q-221.957-65.265-399.361 7.773-2.09.845-4.163 1.625a106.139 106.139 0 012.605 29.889q4.591.985 9.1 2.378a107 107 0 0127.163 4.379q1.609.321 3.213.693 5.064.869 10.048 2.229 4.934 1.114 9.813 2.716 3.5.847 6.98 1.94a106.685 106.685 0 0116.485 2.225h26.171a106.629 106.629 0 0121.108 2.11q5.01.659 9.958 1.793a106.531 106.531 0 0141.331 12l.655.324q2.751 1.307 5.441 2.778 3.763 1.711 7.417 3.724 4.688 2.147 9.169 4.742c2 .852 3.984 1.761 5.953 2.746l.447.224q1.4.666 2.789 1.376 2.159.819 4.287 1.734a106.121 106.121 0 0123.057 10.6 107.393 107.393 0 0117.337 6.494 106.655 106.655 0 0114.437 6.724l2.991 1.2c1.926.769 3.813 1.606 5.678 2.482a107.835 107.835 0 0114.259 5.89l1.365.684-4.443-1.112a106.337 106.337 0 0117.829 6.635 106.009 106.009 0 0123.655 5.924A106.815 106.815 0 01481.339 526a106.655 106.655 0 0122.011 6.426q4 1.035 7.958 2.391.628.131 1.257.268a106.43 106.43 0 0116.026 1.994 107.337 107.337 0 0115.8 3.327 106.91 106.91 0 0118.552 3.771q4.044.816 8.057 1.956a107.1 107.1 0 0113.789 2.229q2.832.483 5.642 1.122 4.6.776 9.161 1.969l27.423.119a105.942 105.942 0 0112.666-6.458 106.2 106.2 0 0115.774-7.448l3.556-1.422a106.516 106.516 0 0191.4 5.759" class="cls-4" transform="translate(-17.691 125.64)"/>
      <path id="Path_1069" d="M626.765 510.538q41.715-10.115 56.363-24.291a129.785 129.785 0 00-147.859-48.265A138.435 138.435 0 01424.4 427.77a107.993 107.993 0 00-94.61-5.042q144.507 93.17 208.976 64.6l88 23.212" class="cls-6" transform="translate(97.755 159.095)"/>
      <path id="Path_1070" d="M328.7 53.219Q239.975 171.228 256.872 220.4a27.657 27.657 0 0045.484-22.741 25.89 25.89 0 0039.8-26.532 25.328 25.328 0 0023.373-39.8A25.551 25.551 0 00390.955 98.8 35.034 35.034 0 00437.6 56.314q-65.741-4.577-108.893-3.1" class="cls-8" transform="translate(53.393 -52.857)"/>
      <path id="Path_1071" d="M112.295 235.407q9.118 6.776 4.262 11.04 4.943 12.906 5.543 32.453a32.778 32.778 0 0056.212 3.48 29.2 29.2 0 0053.844-8.765 20.44 20.44 0 0034.162-15.855 21.272 21.272 0 0035.994-18.611 27.417 27.417 0 0038.569-4.059 18.754 18.754 0 0029.759 6.174 21.327 21.327 0 00-23.86-20.137 27.341 27.341 0 00-1.888-13.756 24.633 24.633 0 0016.58-43.029 25.03 25.03 0 0026.278-25.192 27.71 27.71 0 0041.086-31.832 28.318 28.318 0 00-11.119-54.3q-6.331.117-11.571.236a12.015 12.015 0 01-12.933 14.635c-.389.075-.776.146-1.155.222a14.332 14.332 0 01-2.94.233l-.915.152a22.944 22.944 0 01-5.607 1.033h-3.766l-2.259.677a183.342 183.342 0 01-5.033.876 12.057 12.057 0 01-8.022-.608z" class="cls-6" transform="translate(-29.833 -52.765)"/>
      <path id="Path_1073" d="M339.01 67.957l.132-.025a11.961 11.961 0 002.034-.36c.373-.094.744-.186 1.112-.3a14.592 14.592 0 001.512-.072l1.588-.178a11.936 11.936 0 001.687-.309c.5-.122 1-.248 1.491-.409l-.4.135a23.6 23.6 0 002.364-.225H355a12.007 12.007 0 0011.987-11.3q22.613-1.373 45.277-1.814a45.622 45.622 0 01-57.742 55.8 22.77 22.77 0 01-9.937 36.64 26.987 26.987 0 01-30.428 40.36 24.433 24.433 0 01-39.123 21.115 25.459 25.459 0 01-36.64 32.291 32.723 32.723 0 01-59 11.178 43.281 43.281 0 01-61-4.09c-3.153-7.276-7.176-16.507-9.237-26.722L324.1 62.629a12 12 0 0010.431 6.058h.354a11.965 11.965 0 004.13-.73" class="cls-5" transform="translate(-31.673 -52.715)"/>
      <path id="Path_1074" d="M127.411 152.339q88.5-58.6 138.292-82.765Q299.992 59 367.9 54.164a24.487 24.487 0 01-42.563 21.607 26.9 26.9 0 01-26.651 37.9 26.414 26.414 0 01-.178 16.945 23.1 23.1 0 013.175 35.783 20.306 20.306 0 01-18.056-20.093 26.365 26.365 0 01-10.226 1.985 16.617 16.617 0 01-18.014 24.582 23.4 23.4 0 01-28.521 37.011 25.638 25.638 0 01-43.377 2.259 19.969 19.969 0 01-38.6 7.275 19.078 19.078 0 01-33.762 5.59c-7.022-22.365-.947-49.353 16.288-72.67" class="cls-4" transform="translate(-32.201 -52.09)"/>
      <path id="Path_1075" fill="#a86437" fill-rule="evenodd" d="M135.025 212.619l-.073-.221m-11.93 353.534q94.864.873 81.84-102.332a1687.536 1687.536 0 00-9.605-303.572c-1.076-9.437 5.349-10.064 17.788-18.2 23.963-16.66 37.751-42.109 37.539-69.137l-3.859 2.572a11.9 11.9 0 01-1.292.75l-2.824 1.412a11.96 11.96 0 01-8.1.952c-1.542 20.05-14.13 38.422-33.709 44.489-7.482 2.3-10.273-.576-10.278-9.263l.368-15.589-7.844 5.393a22.11 22.11 0 01-3.7 1.864l-1.542.965-2.259 1.412q-.483.3-.993.557L172 109.478l-5.955 3.367-2.842 1.809a11.2 11.2 0 01-.616.365l-2.367 1.315-2.651 1.591c-.877.527-1.872.976-2.791 1.434l-1.209.865c-.925.66-2.01 1.219-3 1.783a11.17 11.17 0 01-1.372.663l-1.038.83a11.928 11.928 0 01-1.439.977 11.958 11.958 0 01-2.542 1.869 14.3 14.3 0 01-.479.362 66.957 66.957 0 01-6.953 12.445 66.828 66.828 0 012.126 16.766v3.389a66.934 66.934 0 01-1.888 15.788 66.913 66.913 0 01-2.094 24.986q.088.659.165 1.323a67 67 0 011.558 14.381v1.6l-.7-2.1a66.4 66.4 0 012.729 14.151A67.188 67.188 0 01140 242.965l-1.163-2.326h-.868a66.645 66.645 0 013.161 20.333v41.795a66.808 66.808 0 01-.908 10.965l-1.106 6.64a69.303 69.303 0 01-1.109 5.352l-.744 2.978-.652 3.307v11.424a66.741 66.741 0 01-1.13 12.223v16.017a66.677 66.677 0 01-1.539 14.246 67.094 67.094 0 01-1.891 9.907 66.835 66.835 0 01-1.076 9.474 66.453 66.453 0 01-1.142 12.493v21.656a66.651 66.651 0 01-.908 10.965l-1 6.013-.351 2.447v-.051a66.18 66.18 0 01-3.274 19.387l-.106.646v38.533c0 4.238-1.13 8.081-1.13 12.3V563.7c-.004.746-.018 1.49-.042 2.233z" transform="translate(-23.541 -41.224)"/>
      <path id="Path_1076" d="M166.088 234.45c9.642-15.247 17.678-14.624 20.669 1.606q4.531 28.369 9.342 91.191c.081 15.719-9.485 16.731-10.035 1.764-.725-8.48-3.587-15.238-10.713-21.457-20.953-18.294-24.907-49.5-9.263-73.1" class="cls-11" transform="translate(-3.873 47.207)"/>
      <path id="Path_1077" d="M153.487 125.2c9.64-15.247 17.677-14.624 20.669 1.606q4.531 28.369 9.34 91.191c.083 15.72-9.483 16.731-10.035 1.766-.723-8.481-3.587-15.238-10.711-21.459-20.955-18.294-24.908-49.495-9.263-73.1" class="cls-11" transform="translate(-11.265 -16.883)"/>
      <path id="Path_1078" fill="#8a391c" fill-rule="evenodd" d="M105.527 524.817q131.9 55.747 109.3-132.991a47.228 47.228 0 01-48.844-70.438 106.189 106.189 0 001.777-116.669 98.348 98.348 0 01-7.316-98.783 31.627 31.627 0 001.3-3.059l-1.848 2.08a12.03 12.03 0 01-.781.8l-4.236 3.954a12.139 12.139 0 01-1.226 1 12.028 12.028 0 01-10.394 5.039q1.518 167.336-24.05 323.606-9.76 53.234-13.681 85.46" transform="translate(-33.804 -23.514)"/>
      <path id="Path_1079" d="M106.781 457.055q184.445 42.827 126.425-106.07-19.661-65.924-77.935-69.838c-11.136-.525-13.039 2.332-10.849 12.975a87.5 87.5 0 0037.733 59.314 157.953 157.953 0 00-92.2-21.729c-11.766 1-13.139 6.032-7.968 18.229a109.222 109.222 0 0082.414 67.07c-26.2-2-53.628 2.716-75.3 16.709q-15.762 11.7 17.685 23.341" class="cls-5" transform="translate(-49.293 81.028)"/>
      <path id="Path_1080" d="M133.93 346.435a252.406 252.406 0 00-2.648-2.37q-.774 1.266-1.471 2.572a68.699 68.699 0 014.119-.2m41.052-52.6q36.872 93.622-27.5 48.56a69.993 69.993 0 0127.5-48.563z" class="cls-5" transform="translate(-19.558 88.506)"/>
      <path id="Path_1081" d="M90.322 391.07a1.727 1.727 0 11-.436-3.426q40.066-5.091 66.687-10.5 26.5-5.383 39.574-11.059a1.729 1.729 0 111.384 3.168q-13.4 5.814-40.268 11.273-26.746 5.436-66.94 10.542" class="cls-7" transform="translate(-43.864 130.806)"/>
      <path id="Path_1082" d="M83.881 320.039a1.727 1.727 0 111.937-2.859q33.419 22.681 56.965 36.229 23.435 13.487 37 17.878a1.729 1.729 0 11-1.057 3.292q-13.894-4.5-37.66-18.176-23.666-13.613-57.185-36.364" class="cls-7" transform="translate(-46.947 102.026)"/>
      <path id="Path_1083" d="M204.818 357.3q50.359 82.26-77.356 67.985 2.632-21.081 35.2-31.812-21.707 3.708-39.734-4.955c-7.041-3.272-8.78-5.832-2.05-10.159q19.575-11.129 38.707-7.283-14.7-9.384-27.014-38.173c-3.579-9.885-4.159-13.345 5.406-12.809a84.111 84.111 0 0166.841 37.2" class="cls-4" transform="translate(-27.283 103.881)"/>
      <path id="Path_1084" d="M149.745 410.489c76.329 15 72.177-19.976 8.644-84.284a60.541 60.541 0 00-2.036 52.151c3.094 10.435-.276 25.667-6.608 32.134" class="cls-4" transform="translate(-7.864 107.494)"/>
      <path id="Path_1085" d="M131 326.649a1.73 1.73 0 012.047-2.791q17.3 12.761 31.366 23.888Q178.43 358.834 189 368.125a1.729 1.729 0 01-2.277 2.6q-10.553-9.277-24.453-20.272Q148.415 339.5 131 326.649" class="cls-7" transform="translate(-19.276 105.922)"/>
      <path id="Path_1086" d="M122.163 361.921a1.728 1.728 0 01-.013-3.456l86.179-.525a1.727 1.727 0 11.014 3.454z" class="cls-7" transform="translate(-25.062 126.112)"/>
      <path id="Path_1087" d="M132.1 388.775a1.666 1.666 0 01-2.086-1.2 1.792 1.792 0 011.272-2.129l74.651-20.666a1.666 1.666 0 012.086 1.2 1.789 1.789 0 01-1.272 2.128z" class="cls-7" transform="translate(-19.47 130.085)"/>
      <path id="Path_1088" d="M123.127 286.893a1.73 1.73 0 112.4-2.494l55.854 53.918a1.729 1.729 0 11-2.4 2.493z" class="cls-7" transform="translate(-23.79 82.687)"/>
      <path id="Path_1089" d="M468.243 464.893a322.827 322.827 0 01-54.74-39.318C347.79 372.607 247.3 350.126 168.229 387.6c-.944.381-1.89.757-2.831 1.144q-43.757 17.681-80.546 7.229a252.469 252.469 0 0017.81 21.576h-.01a246.236 246.236 0 007.181 7.452h.016c15.65 15.487 32.2 27.114 49.411 34.623a107.035 107.035 0 0164.863-10.024 106.506 106.506 0 0160.75 1.907 117.825 117.825 0 0135.678-.681 106.905 106.905 0 0191.5 24.3 106.238 106.238 0 0156.189-10.231m288.532 74.8a250.762 250.762 0 0027.184-6.093q-65.2-51.116-152.811-38.937-54.12 8.213-104.1-5.4a106 106 0 018.114 7.536q3.358 2.38 6.551 5.036 1.835 1.245 3.629 2.572 3.18 1.514 6.289 3.254l.633.287a107.75 107.75 0 019.945 4.547l.825.339q1.511.564 3.01 1.176a106.066 106.066 0 0110.178 4.092q2.1.85 4.184 1.8 1.628.643 3.241 1.341a106.247 106.247 0 0124.434 8.509q4.986 1.863 9.87 4.254 2.154 1.021 4.274 2.143l.635.1a106.645 106.645 0 0110.848 1.634h62.373a107.219 107.219 0 0160.697 1.815z" class="cls-6" transform="translate(-45.932 132.606)"/>
      <path id="Path_1090" d="M483.652 515.841q-2.918-.428-5.85-.7a106.818 106.818 0 00-25.964-2.708h-16.665q-3.867-.407-7.733-.528-1.39-.209-2.781-.381-3.111-.5-6.226-.82-2.473-.638-4.993-1.157a106.93 106.93 0 00-35.764-6.15h-7.486l-.69-.219q-1.018-.409-2.042-.8l-.568-.268a124.194 124.194 0 00-24.06-15.465 106.1 106.1 0 00-18.314-7.478l-.019-.029a107.221 107.221 0 00-37.038-41.43 137.749 137.749 0 01170.788 21.212c24.424 24.545 58.548 38.174 93.276 31.3a104.852 104.852 0 0186.764 21.08q-52.144 8.927-127.736 7.621a107.247 107.247 0 00-26.9-3.076" class="cls-5" transform="translate(72.921 160.944)"/>
      <path id="Path_1091" d="M341.336 350.9a18.158 18.158 0 01-10.353 29.072l-25.127-10.112 17.178-28.832 18.3 9.874" class="cls-13" transform="translate(83.714 116.191)"/>
      <path id="Path_1092" d="M337.275 368.754q10.767-3.372 11.244-8.133-8.532 1.623-15.965-6.967a21.1 21.1 0 00-22.351-6.483l3.541 10.588 23.53 11" class="cls-14" transform="translate(86.264 119.234)"/>
      <path id="Path_1093" d="M222.362 339.293q-22.826 59.967-22.827 59.966a68.805 68.805 0 0073.218-9.724l32.96-25.008q4.139-4.258 8.623-2.023l38.8 19.379A73.571 73.571 0 00377.425 347l-48.413-27.731-106.65 20.024" class="cls-15" transform="translate(21.343 103.424)"/>
      <path id="Path_1094" fill="#874a4a" fill-rule="evenodd" d="M294.116 374.083a27.765 27.765 0 0017.945 11.368 83.122 83.122 0 0026.519-40.422 24.709 24.709 0 00-17.7-10.043 102.625 102.625 0 01-26.76 39.1" transform="translate(76.827 112.646)"/>
      <path id="Path_1095" fill="#291111" fill-rule="evenodd" d="M371.166 334.949q-21.388 59.213-32.2 65.951a19.121 19.121 0 01-19.4-13.126 15.448 15.448 0 0011.8-22.849 6.541 6.541 0 01.622-12.612l9.92-4.82q12.923-12.623 12.921-12.623a9.183 9.183 0 0116.336.079" transform="translate(91.759 109.676)"/>
      <path id="Path_1096" fill="#f2ede9" fill-rule="evenodd" d="M331.7 400.181l32.386-66.616a2.875 2.875 0 013.83-1.323l3.224 1.568a2.871 2.871 0 011.323 3.828l-32.386 66.616a2.871 2.871 0 01-3.829 1.323l-3.226-1.568a2.871 2.871 0 01-1.323-3.828" transform="translate(98.705 110.868)"/>
      <path id="Path_1097" d="M337.759 360.387a18.16 18.16 0 01-10.359 29.071s-8.376-3.37-25.127-10.113l17.18-28.832 18.3 9.874" class="cls-19" transform="translate(81.614 121.755)"/>
      <path id="Path_1098" d="M219.022 347.261c-15.216 39.977-28.267 55.581-28.267 55.581 21.5 15.325 58.21 11.838 78.66-5.339l32.96-25.01c3.389-2.556 5.542-3.5 8.623-2.021l38.8 19.377a73.552 73.552 0 0024.29-34.887s-16.138-9.242-48.413-27.729l-106.653 20.028" class="cls-20" transform="translate(16.193 108.098)"/>
      <path id="Path_1099" d="M221.269 352.081l-27.647 46.951A53.879 53.879 0 00258.64 388.3a19.491 19.491 0 00-.32-25.741 9.409 9.409 0 0112.006-14.372 33.394 33.394 0 0049.284-11.671q-42.8-4.631-42.634-5.631-64.825-2.006-55.706 21.2" class="cls-15" transform="translate(17.875 110.146)"/>
      <path id="Path_1100" fill="#290d0d" fill-rule="evenodd" d="M222.194 348.529q-25.975 15.113-28.572 40.059a53.9 53.9 0 0047.464 1.806c7.525-3.283 8.723-10.554 1.239-11.474a25.24 25.24 0 01-20.131-30.39" transform="translate(17.875 120.591)"/>
      <path id="Path_1101" d="M328.321 316.405a26.952 26.952 0 01-40.438 21.048q-50.9 6.785-67.279 2.878c-8.747-2.159-16.88-6.8-30.165-17.239q6.481-4.955 11.655-8.758a9.142 9.142 0 0015.6 6.269c.26-.26.527-.517.779-.784a25.056 25.056 0 012.074-2.1l.83-.622c.443-.332.941-.555 1.385-.889l.211-.159c.2-.109.39-.225.584-.354l1.209-.806c.612-.409 1.274-.816 1.848-1.274l.9-.717.692-.519a9.116 9.116 0 002.224-2.4l.3-.451a9.07 9.07 0 00.706-1.268c4.316 2.464 7.694 3.954 11.078 4.493a331.487 331.487 0 0054.2 4.076l9.71-9.3a3.037 3.037 0 014.587 3.946q-12.131 14.806 2.521 6.68 5.5-2.775 7.5-5.237a4.518 4.518 0 017.283 3.478" class="cls-13" transform="translate(16.008 96.039)"/>
      <path id="Path_1102" d="M229.678 312.586q-13.028-2.678-6.683 3.59c6.062 5.19 18.14 5.964 27.5 3a82.006 82.006 0 019.325-2.167c3.292-.608 3.011-1.561-.657-1.687-13.5-.652-23.03-1.384-29.489-2.734" class="cls-22" transform="translate(33.887 99.036)"/>
      <path id="Path_1103" fill="#e07051" fill-rule="evenodd" d="M208.568 311.009L197.6 317.36a9.106 9.106 0 016.029 2.627l.69.344a10.105 10.105 0 01.923.535l.255.1a10.122 10.122 0 011.634.816c.219.084.438.178.654.281a9.628 9.628 0 011.042.382 9.11 9.11 0 012.031.869c.1.043.206.089.308.136a14.343 14.343 0 013.38 1.493c.168.094.333.193.5.3a10.381 10.381 0 011.561.874c.14.071.276.146.411.225.117.049.235.1.351.157.152.057.3.119.454.186a9.125 9.125 0 011.756.719c.209.079.417.168.627.251a9.23 9.23 0 011.534.574 11.642 11.642 0 011.231.568q.193.09.381.19c.143.067.284.138.424.213a9.041 9.041 0 01.993.544c.075.038.149.078.222.117a9.919 9.919 0 011.369.773c.127.044.254.09.379.14a9.015 9.015 0 011.193.417q.412.133.812.3c.211.068.424.138.631.214l.04.01a9.407 9.407 0 014.382.527c12.341.568 28.788-.865 54.765-2.921a33.984 33.984 0 0022.33 4.033c4.761-.841 4.419-3.775-1.482-4.263a32.91 32.91 0 01-16.993-6.41 10.833 10.833 0 00-9.931-2.131c-19.695 5.594-36.507 8.169-49.945 1.23-10.272-5.445-17-9.715-23.967-10.78" opacity=".257" transform="translate(20.205 98.581)"/>
      <path id="Path_1104" d="M236.8 319.213a62.626 62.626 0 01-33.04 21q-14.118-11.4-20.815-31.058c-3.554-10.381.3-21.662 10.108-26.443s22.79-1.529 27.061 8.317q9.146 21.593 16.685 28.185" class="cls-24" transform="translate(10.852 80.706)"/>
      <path id="Path_1105" d="M223.086 322.534q4.546-2.67 2.61-4.417-9.279-7.473-17.761-27.947a11.372 11.372 0 00-6.356-6.472c-3.67-1.485-4.952-.958-3.767 2.84a19.049 19.049 0 01.779 6.446q-.364 13.271 10.4 17.017c7.725 2.693 12.152 6.058 14.094 12.533" class="cls-25" transform="translate(20.082 82.109)"/>
      <path id="Path_1106" fill="#c9574c" fill-rule="evenodd" d="M247.635 342.036l20.716 23.131 42.512 3.356c4.1.416 5.6-2.026 6.41-8.439l7.982-73.464q.635-8.53-6.094-11.89l-56.054-18.4c-3.118-.982-6.1-.546-8.157 1.193s-2.3 3.678-2.5 7.822l-4.82 76.691" transform="translate(49.56 66.202)"/>
      <path id="Path_1107" d="M250.587 347.944l18.87 22.657s12.907.793 38.722 2.383c3.733.32 5.1-2.155 5.839-8.587l7.27-73.646q.578-8.544-5.552-11.751l-51.056-17.116a7.248 7.248 0 00-7.429 1.379c-1.871 1.785-2.1 3.732-2.275 7.879l-4.389 76.8" class="cls-27" transform="translate(51.292 69.503)"/>
      <path id="Path_1108" d="M193.993 326.5a7.34 7.34 0 005.358 5.826 74.947 74.947 0 0036.559-22.367 6.141 6.141 0 00-5.734-6.391q-16.524 16.862-36.183 22.931" class="cls-27" transform="translate(18.092 94.215)"/>
      <path id="Path_1109" d="M254.32 359.686c8.236 3.776 7.168 11.93-4.654 26.82-11.409 14.084-20.947 27.9-27.477 42.8-4.052 9.291-13.224 7.932-25.094.271-50.466-34.937-58.721-115.712-15.387-154.442q26.017 19.834 39.12 10.143a33.476 33.476 0 0110.7 22.292c-.519 25.965 4.782 43.819 22.793 52.113" class="cls-28" transform="translate(-5.562 77.538)"/>
      <path id="Path_1110" d="M178.464 272.252l28.221 12.639a2.731 2.731 0 013.776 2.1c7.191 16.049-16.583 22.032-39.12-10.143 1.882-2.923 3.66-4.919 7.122-4.6" class="cls-27" transform="translate(4.805 75.826)"/>
      <path id="Path_1111" fill="#ffce91" fill-rule="evenodd" d="M184.126 263.377l19.85 15.3.465 13c3.986 8.163-16.106 6.648-28.032-12.7a2.281 2.281 0 00.635-.4c.038-.024.073-.048.109-.073a2.288 2.288 0 00.982-.628 2.259 2.259 0 00.478-.4 2.568 2.568 0 00.579-.739 2.314 2.314 0 00.327-.5 2.558 2.558 0 00.363-.727c.03-.059.057-.117.081-.178a3.8 3.8 0 00.23-.462 3.214 3.214 0 00.228-.492 2.394 2.394 0 00.3-.62 3.054 3.054 0 00.168-.676 3.862 3.862 0 00.214-.714 2.364 2.364 0 01.068-.351 5.651 5.651 0 00.241-.811l.052-.314.257-.835a5.618 5.618 0 00.241-.839l.035-.243c.041-.289.217-.493.267-.789l.041-.246.386-1.03c.017-.048.035-.1.049-.146.121-.4.189-.8.34-1.19a7.171 7.171 0 00.386-.847l.065-.262c.084-.148.117-.314.221-.5a6.026 6.026 0 00.371-.595" transform="translate(7.777 70.639)"/>
      <path id="Path_1112" d="M183.966 265.424l.108-.27a2.259 2.259 0 00.259-.384 2.283 2.283 0 00.5-1.695q5.883 2.268 20.356 17.526a48.953 48.953 0 01-28.067-.838l-1.29-2.148 2.54-6.542a2.292 2.292 0 003.067-.828l.073-.106a2.46 2.46 0 00.638-.882c.044-.079.09-.144.135-.222a8.114 8.114 0 00.563-1.3c.029-.065.054-.133.076-.2a5.3 5.3 0 00.233-.639c.041-.127.062-.251.1-.374a2.951 2.951 0 00.151-.267 2.279 2.279 0 00.554-.828" class="cls-30" transform="translate(7.438 70.462)"/>
      <path id="Path_1113" d="M198.4 276.847q-17.316-19.568-18.162-12.59s-.944 2.434-2.835 7.3a79.509 79.509 0 0021 5.288" class="cls-31" transform="translate(11.363 70.079)"/>
      <path id="Path_1114" fill="#d66242" fill-rule="evenodd" d="M219.649 253.932a9.327 9.327 0 11-9.328 9.326 9.327 9.327 0 019.328-9.326" transform="translate(27.671 65.098)"/>
      <path id="Path_1115" d="M220.338 252.671a8.961 8.961 0 11-8.961 8.961 8.962 8.962 0 018.961-8.961" class="cls-27" transform="translate(28.29 64.358)"/>
      <path id="Path_1116" d="M220.341 256.042a5.259 5.259 0 11-5.258 5.258 5.259 5.259 0 015.258-5.258" class="cls-33" transform="translate(30.464 66.336)"/>
      <path id="Path_1117" d="M220.778 259.131a2.107 2.107 0 11-2.109 2.107 2.108 2.108 0 012.109-2.107" class="cls-34" transform="translate(32.568 68.148)"/>
      <path id="Path_1118" d="M221.158 256.742a2.12 2.12 0 11-2.12 2.12 2.119 2.119 0 012.12-2.12" class="cls-27" transform="translate(32.784 66.747)"/>
      <path id="Path_1119" d="M211.686 252.92c-1.087 1.539-.306 1.977 1.817.768q4.355-2.444 15.027 1.357a2.92 2.92 0 002.859-.409 2.778 2.778 0 00.947-2.731 2.711 2.711 0 00-1.99-2.093c-8.26-3.321-14.683-2.38-18.66 3.108" class="cls-35" transform="translate(28.185 61.552)"/>
      <path id="Path_1120" d="M245.5 232.17a44.938 44.938 0 00-63.833 57.212 68.483 68.483 0 0026.216 21.069c7.06 2.789 17.2 4.289 25.089-2.251 7.4-6.031 9.774-10.741 11.524-24.932.3-2.975 1.326-6.462 4.187-11.727a39.16 39.16 0 00-3.183-39.37" class="cls-19" transform="translate(8.513 48.652)"/>
      <path id="Path_1121" d="M225.924 231.884a42.842 42.842 0 00-5.368-2.693 40.644 40.644 0 01-4.757 46.572 40.621 40.621 0 01-7.049 31.85 18.73 18.73 0 005.2-3.065c7.078-5.764 9.342-10.267 11.014-23.829.281-2.843 1.268-6.177 4-11.208a37.427 37.427 0 00-3.043-37.627" class="cls-22" transform="translate(26.749 50.585)"/>
      <path id="Path_1122" d="M207.739 252.046c-.942 1.479-.2 1.852 1.725.631q3.941-2.468 14.037.589a2.718 2.718 0 002.642-.508 2.586 2.586 0 00.76-2.581 2.53 2.53 0 00-1.945-1.86c-7.832-2.716-13.764-1.556-17.218 3.729" class="cls-35" transform="translate(25.918 60.973)"/>
      <path id="Path_1124" d="M215.718 252.972a7.7 7.7 0 11-7.7 7.7 7.7 7.7 0 017.7-7.7" class="cls-27" transform="translate(26.317 64.535)"/>
      <path id="Path_1125" d="M215.624 255.324a4.831 4.831 0 11-4.831 4.831 4.832 4.832 0 014.831-4.831" class="cls-33" transform="translate(27.948 65.915)"/>
      <path id="Path_1126" d="M215.875 257.853a2.53 2.53 0 11-2.529 2.531 2.53 2.53 0 012.529-2.531" class="cls-34" transform="translate(29.445 67.398)"/>
      <path id="Path_1127" d="M216.374 255.967a1.948 1.948 0 11-1.948 1.947 1.947 1.947 0 011.948-1.947" class="cls-27" transform="translate(30.079 66.292)"/>
      <path id="Path_1128" fill="#f08158" fill-rule="evenodd" d="M221.706 258.931c1.371-3.841 3.073-3.5 3.067-.021l-.136 7.8a5.974 5.974 0 01-2.359 10.427 3.484 3.484 0 01-3.652-1.066 2.175 2.175 0 00-3.224-1.491 2.887 2.887 0 112.237-4.855l4.068-10.8" transform="translate(29.031 66.414)"/>
      <path id="Path_1129" fill="#ffb499" fill-rule="evenodd" d="M220.188 264.6a3.243 3.243 0 11-3.245 3.243 3.243 3.243 0 013.245-3.243" transform="translate(31.555 71.354)"/>
      <path id="Path_1130" fill="#ffe3d1" fill-rule="evenodd" d="M220.785 265.278a1.619 1.619 0 11-1.618 1.618 1.619 1.619 0 011.618-1.618" transform="translate(32.86 71.754)"/>
      <path id="Path_1131" d="M202.641 242.085q-27.572 28.9-19.254 41.958 4.32 9.382 24.455 20.658 5.488 3.153 2.21-3.475c-5.556-9.582-6.907-17.707-.99-23.909a23.227 23.227 0 001.78-29.254q.559-28.283-8.2-5.978" class="cls-30" transform="translate(10.74 52.379)"/>
      <path id="Path_1132" d="M201.389 242.807q-35.861 17.688-14.438 38.506a48.918 48.918 0 0011.136 10.2 17.107 17.107 0 013.36-21.118 17.32 17.32 0 00-.059-27.585" class="cls-31" transform="translate(9.262 58.572)"/>
      <path id="Path_1133" d="M189.592 210.954l1.777-.592q-.831.274-1.679.512zm-.839 76.68l5.066-9.624a18.08 18.08 0 005.774 6.275c3.938 2.938 5.85 2.071 5.136-2.724a27.506 27.506 0 0110.2-25.965 22.815 22.815 0 01-3.641 13.851q-1.73 2.918-1.065 4.171a40.456 40.456 0 0125.094-18.671q.355-1.171.774-2.307c.068-.228.138-.455.211-.681a40.258 40.258 0 012.298-7.859q.369-1.407.836-2.772l.049-.3a51.7 51.7 0 01-6.872-18.287q-.152-.821-.268-1.642-.3-.85-.551-1.707l-.119-.089a51.824 51.824 0 01-11.5-10.016 55.532 55.532 0 00-13.4-.952A40.441 40.441 0 01189.908 212h-1.395c-.325.381-.65.76-.971 1.146q-1.169 1.4-2.48 2.716-.514.512-1.027 1.027a40.638 40.638 0 01-8.473 6.5q-.24 1.861-.655 3.722a40.327 40.327 0 01-1.907 7.167q-.29 1.392-.681 2.772-.2 1.623-.522 3.23v17.148l.241.962a40.321 40.321 0 011.162 6.21 40.607 40.607 0 01.541 4.336 40.8 40.8 0 01.827 5.869q.49 1.621.846 3.3l.208.47.4.636.176.248c.292.282.582.571.868.863l.46.267a40.647 40.647 0 0111.226 7.045z" class="cls-20" transform="translate(5.069 38.307)"/>
      <path id="Path_1134" d="M192.371 303.807c9.6 3.914 12.6 1.6 8.193-6.136l-2.218-4.274 5.512-10.47a40.584 40.584 0 0117.166-71.552 53.007 53.007 0 00-15.776 2.223 21.334 21.334 0 00-29.771-7.391c-5.2 3.24-5.666 5.456-1.352 4.054a18.82 18.82 0 0117.683 3.613 43.27 43.27 0 00-38.185 49.993q1.514 6.411 5.755-1.411 5.993-11.393 11.355-15.251a41.434 41.434 0 0021.638 56.6" class="cls-35" transform="translate(-5.921 35.197)"/>
      <path id="Path_1135" d="M177.829 263.981c9.84 16.763 27.279 11.7 16.864-9.6a9.716 9.716 0 10-16.864 9.6" class="cls-19" transform="translate(7.71 62.219)"/>
      <path id="Path_1136" fill="#db7c4c" fill-rule="evenodd" d="M180.438 261.645c6.542 11.143 18.135 7.779 11.211-6.381a6.459 6.459 0 10-11.211 6.381" opacity=".621" transform="translate(9.543 63.789)"/>
      <path id="Path_1137" fill="#a12a18" fill-rule="evenodd" d="M180.038 259.3c4.03 6.864 11.171 4.792 6.907-3.932a3.979 3.979 0 10-6.907 3.932" opacity=".621" transform="translate(9.538 64.652)"/>
      <path id="Path_1138" fill="#8a4444" fill-rule="evenodd" d="M198.457 266.876a22.894 22.894 0 01-1.309 2.3q-3.527 5.947 2.892 4.979a33.258 33.258 0 0028-32.573 28.693 28.693 0 011.087 4.025 40.463 40.463 0 015.482-10.68q-.276-1.521-.435-3.046a40.425 40.425 0 01-.516-4.192 40.538 40.538 0 01-10.838-12.339 52.363 52.363 0 00-18.354-6.621 40.592 40.592 0 012.61 48.522l-.187.281a40.745 40.745 0 01-8.431 9.344" transform="translate(19.21 38.581)"/>
      <path id="Path_1139" fill="#a86060" fill-rule="evenodd" d="M219.52 241.757a24.271 24.271 0 01-1.691 17.623c-1.579 2.859-.325 3.787 2.742 2.48 6.332-2.926 10.21-9.334 10.922-16.223 1.385-14.862-7.273-26.72-19.93-33.473.051.068.1.135.157.2a40.447 40.447 0 017.8 29.389" transform="translate(28.399 40.596)"/>
      <path id="Path_1140" d="M207.879 272.188a5.048 5.048 0 006.992 4.957 9.13 9.13 0 01-6.992-4.957" class="cls-43" transform="translate(26.233 75.808)"/>
      <path id="Path_1141" d="M218.416 278.716q.486-3.508 4.606-7.178-5.255 1.664-12.13-4.032a3.1 3.1 0 00-3.113 2.87 10.916 10.916 0 0010.637 8.339" class="cls-43" transform="translate(26.18 73.061)"/>
      <path id="Path_1142" d="M218.491 272.49a3.851 3.851 0 00-.995 2.434 15.546 15.546 0 01-8.858-4.931 1.808 1.808 0 011.539-1.579 18.1 18.1 0 008.314 4.076" class="cls-27" transform="translate(26.683 73.594)"/>
      <path id="Path_1143" fill="#e3690c" fill-rule="evenodd" d="M173.762 306.291l26.9 36.381c6.512 7.954 8.909 17.5 4.625 28.935q-5.907 15.781 6.657 36.935c4.652 9.174-1.387 11.658-13.28 3.976a102.365 102.365 0 01-39.383-103.784q4.07-24.083 14.483-2.443" transform="translate(-3.598 89.805)"/>
      <path id="Path_1144" fill="#c2300f" fill-rule="evenodd" d="M241.9 362.279a1015.157 1015.157 0 00-77.421-66.633c-10.922 22.87 2.028 38.025 11.19 49.947a54.974 54.974 0 0037.758 21.17c7.932.941 28.477.109 28.472-4.484" opacity=".347" transform="translate(-1.669 89.569)"/>
      <path id="Path_1145" d="M227.987 327.885a74.913 74.913 0 01-39.534 25.127q-16.89-13.642-24.907-37.162c-4.252-12.423.365-25.922 12.1-31.642s27.271-1.831 32.38 9.951q10.942 25.841 19.961 33.726" class="cls-24" transform="translate(-.68 81.333)"/>
      <path id="Path_1146" d="M190.8 351.382l20.561-8.012q1.428-12.773-23.634-25.421c-9.6-5.12-9.929-18.579-4.025-27.382 3.564-5.1 1.588-7.363-3.962-5.291a22.234 22.234 0 00-13.3 27.759 90.652 90.652 0 0024.36 38.347" class="cls-28" transform="translate(1.276 83.037)"/>
      <path id="Path_1147" fill="#d95b0d" fill-rule="evenodd" d="M188.32 339.772l10.448-1.141q-5.51-1.94-9.935-15.6c-3.4-9.355-9.891-15.241-18.2-20.561-3.784-2.409-5.322-2.545-4.523 1.046q7.7 22 22.213 36.253" transform="translate(1.614 92.553)"/>
      <path id="Path_1148" d="M210.55 331.459q5.074-3.075 2.915-5.085-10.357-8.608-19.826-32.18a12.923 12.923 0 00-7.1-7.452c-4.1-1.71-5.528-1.1-4.2 3.27a22.573 22.573 0 01.869 7.424q-.407 15.279 11.611 19.592c8.625 3.1 13.567 6.975 15.733 14.432" class="cls-25" transform="translate(10.974 83.826)"/>
      <path id="Path_1149" d="M214.827 334.167L226.979 338q-4.755 10.657-15.495 23.025-16.8 16.569-15.739-3.33c.39-6.277 2.992-11.993 9.471-14.21q8.706-3.529 9.612-9.318" class="cls-24" transform="translate(19.083 112.166)"/>
      <path id="Path_1150" fill="#e86d61" fill-rule="evenodd" d="M242.539 361.243l20.716 16.986 42.51-9.252c4.1-.8 5.6-3.687 6.411-10.34l7.981-75.831c.425-5.812-1.457-9.718-6.094-10.083l-56.054-1.775a10.574 10.574 0 00-8.155 3.611c-2.055 2.347-2.3 4.362-2.5 8.563l-4.819 78.121" transform="translate(46.571 75.079)"/>
      <path id="Path_1151" fill="#fcaa77" fill-rule="evenodd" d="M295.293 270.168l3.435-.957c3.143-.874 5.556 1.223 5.363 4.663l-4.877 86.888a9.131 9.131 0 01-6.064 7.846l-3.435.957c-3.142.874-5.556-1.223-5.363-4.663l4.877-86.888a9.133 9.133 0 016.064-7.846" transform="translate(71.093 73.945)"/>
      <path id="Path_1152" fill="#b83333" fill-rule="evenodd" d="M244.785 353.531l23.071 15.538 30.517-6.7a17.338 17.338 0 00.557-17.182 17.549 17.549 0 00-14.511-9.214 29.6 29.6 0 01-25.192-40 12.135 12.135 0 00-10.118-16.653l-4.324 74.211" transform="translate(47.888 79.991)"/>
      <path id="Path_1153" d="M324.331 329.643a27.924 27.924 0 01-42.225 21.166q-52.844 6.226-69.745 1.92c-9.029-2.374-17.381-7.306-30.977-18.335q4.929-3.651 9.142-6.684a2.285 2.285 0 003.889 1.385c.159-.16.332-.32.481-.487a2.165 2.165 0 00.321-.351l.474-.633a3.391 3.391 0 01.466-.465l-.07.068c-.221.221.452-.271.652-.462a2.28 2.28 0 00.965-.574l-.068.068a4.343 4.343 0 001.552-1.633l.022-.036a2.469 2.469 0 00.779-.774 2.266 2.266 0 00.608-.541 2.009 2.009 0 00.2-.181l.808-.808c.238-.238.516-.359.774-.581.165-.141.382-.241.552-.378l.968-.774c.148-.117.257-.29.416-.4l.273-.182a2.849 2.849 0 00.881-.585 5.339 5.339 0 00.62-.673 2.268 2.268 0 00.5-.473c.2-.162.37-.439.6-.574a5.8 5.8 0 00.774-.406c.582-.466 1.139-.965 1.745-1.4.211-.151.49-.23.712-.363l.809-.485.8-.319a3.61 3.61 0 00.936-.623 2.274 2.274 0 001.325-.6c9.848 6.423 15.5 10.042 21.207 11.041a343.343 343.343 0 0056.087 5.079l10.207-9.478a3.146 3.146 0 014.69 4.159q-12.8 15.148 2.507 6.961 5.736-2.789 7.852-5.307a4.681 4.681 0 017.489 3.719" class="cls-19" transform="translate(10.696 100.025)"/>
      <path id="Path_1154" fill="#ed7f57" fill-rule="evenodd" d="M198.342 323.246L187.37 329.6a9.118 9.118 0 016.029 2.626l.689.346a9.243 9.243 0 01.925.535l.255.1a10.055 10.055 0 011.633.816c.221.084.44.178.655.281a9.746 9.746 0 011.042.381 9.114 9.114 0 012.031.869c.1.044.206.09.308.138a9.092 9.092 0 012.224.863 8.975 8.975 0 011.155.63c.168.094.333.192.5.3a10.407 10.407 0 011.561.876c.138.07.276.146.411.224.117.051.235.1.351.159.152.057.3.119.452.184a9.2 9.2 0 011.758.72c.209.079.417.167.627.249a9.09 9.09 0 011.534.576 11.046 11.046 0 011.231.568q.193.09.381.19c.143.067.284.136.424.211a9.051 9.051 0 01.993.546c.075.038.149.076.222.117a9.65 9.65 0 011.368.773c.128.043.255.09.381.14a8.787 8.787 0 011.193.417 8.5 8.5 0 01.812.3c.211.068.424.138.631.213l.04.009a9.449 9.449 0 014.382.527c12.341.568 28.788-.865 54.765-2.921a33.973 33.973 0 0022.33 4.033c4.76-.839 4.419-3.773-1.482-4.263a32.9 32.9 0 01-16.993-6.41 10.842 10.842 0 00-9.931-2.131c-19.695 5.6-36.507 8.171-49.945 1.231-10.272-5.445-17-9.715-23.969-10.78" opacity=".257" transform="translate(14.207 105.759)"/>
      <path id="Path_1155" fill="#ed9e71" fill-rule="evenodd" d="M187.688 330.733q5.026-8.375 10.139-4.9a41.47 41.47 0 0033.841 17.659q-25.549 1.913-43.98-12.755" transform="translate(14.394 106.678)"/>
      <path id="Path_1156" d="M176.762 336.6a8.787 8.787 0 006.41 6.973 89.667 89.667 0 0043.745-26.765 7.345 7.345 0 00-6.859-7.646q-19.772 20.175-43.3 27.437" class="cls-27" transform="translate(7.984 97.499)"/>
      <path id="Path_1157" d="M220.21 322.9q-15.986-3.284-8.2 4.4c7.441 6.369 22.257 7.317 33.749 3.679 4.8-1.584 8.365-1.94 11.44-2.661 4.04-.746 3.7-1.913-.8-2.067-16.56-.8-28.259-1.7-36.183-3.356" class="cls-22" transform="translate(27.165 104.979)"/>
      <path id="Path_1158" d="M330.129 382.761q10.764-3.372 11.244-8.135-8.532 1.626-15.966-6.965a21.094 21.094 0 00-22.349-6.483q3.539 10.586 3.541 10.586l23.53 11" class="cls-14" transform="translate(82.072 127.451)"/>
      <path id="Path_1159" fill="#4d2929" fill-rule="evenodd" d="M368.318 342.226q-21.388 59.213-32.2 65.953a19.123 19.123 0 01-19.4-13.128 15.45 15.45 0 0011.8-22.849 6.542 6.542 0 01.62-12.612l9.921-4.82 12.921-12.623a9.181 9.181 0 0116.334.079" transform="translate(90.089 113.944)"/>
      <path id="Path_1160" d="M328.85 407.457l32.388-66.616a2.873 2.873 0 013.829-1.323l3.224 1.568a2.872 2.872 0 011.325 3.828l-32.389 66.616a2.871 2.871 0 01-3.829 1.323l-3.224-1.568a2.872 2.872 0 01-1.325-3.829" class="cls-27" transform="translate(97.034 115.137)"/>
      <path id="Path_1161" fill="#9e6161" fill-rule="evenodd" d="M288.766 382.05a27.76 27.76 0 0017.945 11.368A83.107 83.107 0 00333.23 353a24.709 24.709 0 00-17.7-10.043 102.624 102.624 0 01-26.76 39.1" transform="translate(73.688 117.319)"/>
      <path id="Path_1162" fill="#f5d25d" fill-rule="evenodd" d="M295.294 488.457l28.025 5.272a82.333 82.333 0 0030.306-75.144c-1.7-12.149 2.708-20.031 8.071-28.6 3.69-6.039-.532-10.489-12.195-9.214a73.528 73.528 0 00-54.207 107.686" transform="translate(72.346 139.376)"/>
      <path id="Path_1163" fill="#ed8d07" fill-rule="evenodd" d="M289.418 431.682q54.6 76.955 59.727 10.194-4.472-6.259-17.194-9.386a26.086 26.086 0 01-16.193-36.726c2.367-4.719.53-5.95-4.454-1.755q-13.742 12.2-21.886 37.673" transform="translate(74.071 145.77)"/>
      <path id="Path_1164" d="M347.312 383.224a1.995 1.995 0 012.055 3.419A87.192 87.192 0 00314.586 425q-11.6 24.573-11.451 59.871a2 2 0 11-3.993.022q-.157-36.192 11.839-61.6a91.08 91.08 0 0136.331-40.077" class="cls-7" transform="translate(79.774 140.776)"/>
      <path id="Path_1165" fill="#d44102" fill-rule="evenodd" d="M298.712 421.575q34.031 66.819 44.538 7.335-24 7.616-44.538-7.335" transform="translate(79.523 163.441)"/>
      <path id="Path_1166" d="M309.139 453.985L319.5 471.89a59.726 59.726 0 0055.663-18.9c5.877-6.684 12.3-7.99 19.549-9.1 5.066-.828 5.517-5.256-.706-11.067a53.345 53.345 0 00-84.868 21.153" class="cls-57" transform="translate(85.64 162.343)"/>
      <path id="Path_1167" d="M312.289 446.167q10.236 23.471 10.235 23.472a58.7 58.7 0 0020.839-3.57 33.565 33.565 0 0113.816-38.952q8.637-4.055.1-4.966a51.611 51.611 0 00-44.99 24.015" class="cls-58" transform="translate(87.487 163.769)"/>
      <path id="Path_1168" d="M313.567 441.741q-2.149 22.16 11.325 26.17 1.571-.062 3.138-.206a32.933 32.933 0 016.082-42.693 51.61 51.61 0 00-19.341 15.135l-1.2 1.594" class="cls-59" transform="translate(88.064 165.457)"/>
      <path id="Path_1169" d="M392.141 432.24a1.447 1.447 0 11-.908 2.748 63.245 63.245 0 00-37.554-.973q-19 5.248-38.342 22.037a1.45 1.45 0 01-1.9-2.186q19.83-17.214 39.477-22.64a66.082 66.082 0 0139.231 1.014" class="cls-7" transform="translate(87.867 167.64)"/>
      <path id="Path_1170" d="M320.648 456.007l-19.728 8.9a62.49 62.49 0 01-35.786-50.007c-.919-9.266-5.579-14.291-11.065-19.653-3.8-3.794-1.485-7.832 7.348-8.974a55.8 55.8 0 0159.232 69.737" class="cls-57" transform="translate(52.302 142.584)"/>
      <path id="Path_1171" d="M309.414 443.03L286.4 456.737a61.384 61.384 0 01-15.533-15.744 35.113 35.113 0 0012.012-41.531q-4.867-8.713 2.943-4.282a53.994 53.994 0 0123.593 47.851" class="cls-58" transform="translate(63.187 147.081)"/>
      <path id="Path_1172" d="M305.618 432.5q-11.688 20.144-25.584 15.335-1.3-1.011-2.542-2.09a34.453 34.453 0 0020.867-39.994 53.988 53.988 0 017.208 24.659l.051 2.09" class="cls-59" transform="translate(67.075 154.157)"/>
      <path id="Path_1173" d="M256.774 388.584a1.514 1.514 0 00-.9 2.889 66.165 66.165 0 0132.51 22.076q12.952 16.05 19.149 42.115a1.516 1.516 0 002.951-.7q-6.354-26.722-19.744-43.316a69.127 69.127 0 00-33.962-23.066" class="cls-7" transform="translate(53.768 144.047)"/>
      <path id="Path_1174" d="M311.4 372.419a1.733 1.733 0 012.805 2.037 114.058 114.058 0 00-19.523 41.744 110.779 110.779 0 00-.578 45.611 1.732 1.732 0 01-3.406.633 114.179 114.179 0 01.6-47.021q5.179-22.512 20.1-43" class="cls-7" transform="translate(73.562 134.186)"/>
      <path id="Path_1175" d="M292.226 385.924a16.208 16.208 0 0010.515-1.117q-2.642 3.522-2.175 6.621 3.765.469 5.8-1.869-2.192 3.584-.208 6.359 3.453-.645 6.334-6.166 1.357 6.923 5.164 8.561 1.633-1.616 1.388-4.879a15.625 15.625 0 006.748 5.54 6.919 6.919 0 00-.347-4.508q4.35 3.606 7.251 3.776-.124-2.109-2.967-5.4 4.729 2.4 7.2 1.7-1.307-4.1-8.449-7.92a11.961 11.961 0 007.847-1.006A11.91 11.91 0 00326 380.328a13.741 13.741 0 008.677-4.089 10.137 10.137 0 00-9.458-1.374 6.118 6.118 0 003.73-3.449 6.718 6.718 0 00-8.972.941q1.8-3.756.844-6.107-3.553.557-6.34 6.281.186-6.1-4.765-8.979a9.777 9.777 0 00-.052 6.51 19.448 19.448 0 00-7.2-9.171q-1.1 4.648 2.145 9.532-3.184-4.358-11.741-6.3a26.477 26.477 0 005.409 7.292 22.983 22.983 0 00-8.988-3.722 14.675 14.675 0 005.72 4.688q-6.933-2.6-10.311-1.238a21.879 21.879 0 008.185 4.124q-5.21.121-7.8 2.358a24.444 24.444 0 0011.885 3.149 8.489 8.489 0 00-4.739 5.152" class="cls-27" transform="translate(71.3 127.843)"/>
      <path id="Path_1176" d="M308.149 370.388c4.585 2.147 7.124 5.932 5.671 8.457s-6.348 2.834-10.933.687-7.124-5.931-5.671-8.457 6.348-2.832 10.933-.687" class="cls-60" transform="translate(78.405 132.576)"/>
      <path id="Path_1177" d="M305.566 370.27c2.423 1.049 3.881 2.778 3.257 3.86s-3.092 1.109-5.515.06-3.881-2.78-3.257-3.862 3.092-1.109 5.515-.059" class="cls-61" transform="translate(80.224 132.892)"/>
      <path id="Path_1178" d="M340.323 405.778a1.5 1.5 0 112.1 2.134 98.52 98.52 0 00-22.6 32.762 95.646 95.646 0 00-7.01 38.766 1.5 1.5 0 01-2.992.052 98.652 98.652 0 017.232-39.964 101.475 101.475 0 0123.268-33.751" class="cls-7" transform="translate(86.029 153.922)"/>
      <path id="Path_1179" d="M321.055 413.463a13.124 13.124 0 008.482 1.179 7.189 7.189 0 00-3 4.779 5 5 0 004.923-.336q-2.423 2.389-1.407 4.958 2.842.167 6.185-3.608-.288 5.7 2.385 7.738a4.8 4.8 0 002.045-3.564 12.645 12.645 0 004.219 5.674 5.609 5.609 0 00.609-3.611q2.713 3.684 4.96 4.385.314-1.68-1.276-4.823 3.246 2.813 5.323 2.745-.224-3.482-5.091-7.878a9.676 9.676 0 006.364.742 9.643 9.643 0 00-7.083-6.175 11.132 11.132 0 007.619-1.518 8.208 8.208 0 00-7.164-2.929 4.955 4.955 0 003.606-1.982 5.444 5.444 0 00-7.237-1.014q2.152-2.6 1.858-4.636-2.9-.255-6.212 3.7a7.52 7.52 0 00-1.99-7.989 7.927 7.927 0 00-1.314 5.107 15.749 15.749 0 00-3.865-8.615 9.61 9.61 0 00-.176 7.911q-1.652-4.046-7.995-7.249a21.434 21.434 0 002.824 6.789 18.643 18.643 0 00-6.337-4.684 11.862 11.862 0 003.579 4.8q-4.941-3.4-7.862-2.988a17.714 17.714 0 005.626 4.841q-4.117-.921-6.591.33a19.843 19.843 0 008.725 4.8 6.873 6.873 0 00-4.731 3.121" class="cls-27" transform="translate(90.287 148.316)"/>
      <path id="Path_1180" d="M335.808 405.348c3.184 2.581 4.439 6.055 2.8 7.754s-5.544.985-8.726-1.6-4.439-6.055-2.8-7.755 5.542-.985 8.726 1.6" class="cls-60" transform="translate(95.744 152.443)"/>
      <path id="Path_1181" d="M333.615 404.928c1.7 1.3 2.507 2.943 1.806 3.673s-2.646.266-4.346-1.031-2.508-2.943-1.807-3.673 2.648-.267 4.347 1.031" class="cls-61" transform="translate(97.299 152.868)"/>
      <path id="Path_1182" d="M387.421 504.751q79.821 21.941 168.485 19.016a109.319 109.319 0 00-90.975-18.579 79.577 79.577 0 01-92.256-41.7 99.978 99.978 0 00-144.754-37.146 106.35 106.35 0 0165.721 28.169q32.676 30.768 93.779 50.239" class="cls-8" transform="translate(37.995 156.228)"/>
      <path id="Path_1183" d="M222.373 440.665q26.608-10.089 42.374-11.406a96.874 96.874 0 00-135.012 7.563 117.837 117.837 0 0092.638 3.843" class="cls-5" transform="translate(-19.603 153.973)"/>
      <path id="Path_1184" d="M260.161 399.621a2.647 2.647 0 11-2.648 2.648 2.648 2.648 0 012.648-2.648" class="cls-27" transform="translate(55.355 150.563)"/>
      <path id="Path_1185" d="M222.172 396.284a2.647 2.647 0 11-2.646 2.647 2.647 2.647 0 012.646-2.647" class="cls-27" transform="translate(33.07 148.605)"/>
      <path id="Path_1186" d="M237.835 357.849a2.833 2.833 0 11-2.835 2.832 2.832 2.832 0 012.834-2.832" class="cls-27" transform="translate(42.149 126.058)"/>
      <path id="Path_1187" d="M183.06 386.081a2.109 2.109 0 11-2.109 2.109 2.109 2.109 0 012.109-2.109" class="cls-27" transform="translate(10.442 142.62)"/>
      <path id="Path_1188" d="M181.511 358.455a2.109 2.109 0 11-2.109 2.109 2.109 2.109 0 012.109-2.109" class="cls-27" transform="translate(9.533 126.414)"/>
      <path id="Path_1189" d="M138.1 396.336a2.647 2.647 0 11-2.646 2.648 2.648 2.648 0 012.646-2.648" class="cls-27" transform="translate(-16.25 148.635)"/>
      <path id="Path_1190" d="M245.233 412.2a2.058 2.058 0 11-2.058 2.058 2.058 2.058 0 012.058-2.058" class="cls-27" transform="translate(46.944 157.943)"/>
      <path id="Path_1191" d="M295.955 433.3a2.647 2.647 0 11-2.648 2.646 2.647 2.647 0 012.648-2.646" class="cls-27" transform="translate(76.352 170.32)"/>
      <path id="Path_1192" d="M325.286 430.4a4.059 4.059 0 11-4.06 4.06 4.059 4.059 0 014.06-4.06" class="cls-27" transform="translate(92.73 168.62)"/>
      <path id="Path_1193" d="M350.229 451.148a2.079 2.079 0 11-2.078 2.078 2.08 2.08 0 012.078-2.078" class="cls-27" transform="translate(108.524 180.789)"/>
      <path id="Path_1194" d="M386.487 455.351a2.08 2.08 0 11-2.08 2.08 2.08 2.08 0 012.08-2.08" class="cls-27" transform="translate(129.793 183.255)"/>
      <path id="Path_1195" d="M369.653 389.36a2.647 2.647 0 11-2.648 2.648 2.648 2.648 0 012.648-2.648" class="cls-27" transform="translate(119.585 144.543)"/>
      <path id="Path_1197" d="M120.33 147.1a142.266 142.266 0 0111.138-13.469Q175.5 86.571 263.329 63.09a20.879 20.879 0 01-32.37 26.374 20.9 20.9 0 01-24.859 26.995 15.724 15.724 0 01-21.529 21.832 19.026 19.026 0 01-37.854 3.4 16.332 16.332 0 01-26.387 5.409" class="cls-6" transform="translate(-25.12 -46.854)"/>
      <path id="Path_1209" d="M516.7 393.937l-45.768 21.075a130.3 130.3 0 01143.786 39.02q4.122-27.146 20.874-44.087a56.808 56.808 0 00-61.018-26.671 480.914 480.914 0 01-57.874 10.663" class="cls-6" transform="translate(180.549 140.209)"/>
      <path id="Path_1210" d="M440.605 419.514q89.495 32.465 112.7-11.806c6.478-21.118-8.631-44.2-33.676-54.758q-18.468-8.158-42.655.724a110.921 110.921 0 01-21.976 6.072l-42.01 44.454q-.645 10.924 27.617 15.311" class="cls-62" transform="translate(146.551 120.893)"/>
      <path id="Path_1211" d="M490.822 389.142q10.565-9.791 19.319-11.574a24.081 24.081 0 00-25.234 3.54 12.9 12.9 0 01-20.461-6.7 11.394 11.394 0 00-11.744-7.54 6.548 6.548 0 01-6.653-6.686q-6.635 11.383 9.613 33.333 26.148 11.566 35.159-4.378" class="cls-63" transform="translate(164.826 127.429)"/>
      <path id="Path_1212" d="M413.226 399.833q31.915-13.142 26.577 3.021a24.038 24.038 0 01-26.577-3.021m48.8 9.315q31.872 17.466 45.647 16.747a10.61 10.61 0 01-1.463-5.393v-11.568a10.631 10.631 0 01.2-2.074 19.732 19.732 0 01.332-2.274 10.616 10.616 0 011.664-4.081 26.028 26.028 0 0129.737-16.36c4.2.858 3.735-2.542-1.983-4.071-13.686-3.7-25.814 1.269-33.846 13.734a11.532 11.532 0 01-12.407 5.034c-4.787-1.142-8.461-4.631-8.8-10.094a15.809 15.809 0 00-10.819-13.78 10.264 10.264 0 01-3.719-16.523q4.424-4.774-9.093-.928-20.827 33.653 4.547 51.631z" class="cls-64" transform="translate(146.699 124.857)"/>
      <path id="Path_1213" d="M495.789 411.592q-53.751-8.375-60.033-28.461l10.322-12.664a28.469 28.469 0 0051.581 16.5 26.034 26.034 0 00-1.871 24.628" class="cls-65" transform="translate(159.916 133.46)"/>
      <path id="Path_1214" d="M424.792 352.383q20.653 5.669 20.653 5.671 2.292-35.34-20.653-5.671" class="cls-63" transform="translate(153.484 114.909)"/>
      <path id="Path_1215" d="M429.177 351.278l12.312 3.38q1.366-21.065-12.312-3.38" class="cls-65" transform="translate(156.057 117.469)"/>
      <path id="Path_1216" d="M418.152 353.221l-13.762 16.412q-21.986-27.762 13.762-16.412" class="cls-63" transform="translate(136.604 121.411)"/>
      <path id="Path_1217" d="M412.04 355.709l-8.051 9.6q-12.863-16.241 8.051-9.6" class="cls-65" transform="translate(138.407 123.673)"/>
      <path id="Path_1218" d="M419.806 353.058l14.692-4.585a27.534 27.534 0 1116.407 52.566l-14.692 4.585a27.534 27.534 0 11-16.407-52.566" class="cls-62" transform="translate(139.223 119.827)"/>
      <path id="Path_1219" d="M425.39 378.637q1.526-35.768-14.868-22.273a25.662 25.662 0 0020.38 44.8c6.231-1.058 8.066-3.3 4.815-6.437-6.717-5.633-10.617-7.987-10.327-16.09" class="cls-63" transform="translate(139.925 123.018)"/>
      <path id="Path_1220" d="M410.849 360.637a1 1 0 101.325 1.5 5.66 5.66 0 016.77-.56 1 1 0 101.071-1.687 7.658 7.658 0 00-9.166.75" class="cls-7" transform="translate(145.108 126.561)"/>
      <path id="Path_1221" d="M427.549 393.794c2.367.032 2.2-1.1-.658-1.6q-6.63-1.195-9.544-10.116a39.992 39.992 0 00-7.851-12.706q-7.511-7.849-7.767.827a25.664 25.664 0 0025.819 23.591" class="cls-64" transform="translate(139.955 130.633)"/>
      <path id="Path_1222" d="M427.645 374.823a.777.777 0 10.6-1.434 28.479 28.479 0 00-24.953 1.455.777.777 0 00.76 1.355 26.921 26.921 0 0123.6-1.376" class="cls-7" transform="translate(140.637 133.881)"/>
      <path id="Path_1223" d="M426.03 376.612a.777.777 0 10.355-1.514 23.528 23.528 0 00-19.944 4.374.777.777 0 00.955 1.225 22 22 0 0118.633-4.086" class="cls-7" transform="translate(142.544 135.804)"/>
      <path id="Path_1224" d="M423.4 378.544a.776.776 0 00.051-1.552 15.009 15.009 0 00-12.388 5.844.775.775 0 101.225.949 13.48 13.48 0 0111.113-5.241" class="cls-7" transform="translate(145.334 137.283)"/>
      <path id="Path_1225" d="M433.084 375.2a.776.776 0 11-.923-1.247 15.01 15.01 0 0113.512-2.24.775.775 0 11-.468 1.477 13.485 13.485 0 00-12.12 2.01" class="cls-7" transform="translate(157.622 133.771)"/>
      <path id="Path_1226" d="M432.265 354.395a1 1 0 11-.289 1.977A5.661 5.661 0 00426 359.61a1 1 0 11-1.818-.825 7.654 7.654 0 018.081-4.39" class="cls-7" transform="translate(153.075 123.983)"/>
      <path id="Path_1227" fill="#ffe4ad" fill-rule="evenodd" d="M544.191 393.125q3.96-5.755-1.388 6.94c-15.5 34.863-50.671 36.713-109.506 5.552a14.711 14.711 0 01-7.281-15.928 16.381 16.381 0 0111.5-12.217c5.788-1.648 10.749.273 16.217 4.317q63.34 48.758 90.453 11.336" transform="translate(154.013 137.223)"/>
      <path id="Path_1228" fill="#f0b55b" fill-rule="evenodd" d="M433.632 401.948q35.44 21.4 69.185 22.086 6.14-.036 4.1-3.971a15.832 15.832 0 00-24.188-6.434 18.514 18.514 0 01-21.278.514c-6.492-4.33-8.866-11.267-7.7-19.842.539-4.8-.77-9.45-4.362-12.557a13.3 13.3 0 00-13.053-2.505 13 13 0 00-2.707 22.709" transform="translate(155.44 138.175)"/>
      <path id="Path_1229" d="M465.849 404.807a13.6 13.6 0 01-6.109 1.978 118.1 118.1 0 0024.531 3.181c2.569-.106 1.7-2.209-3.13-5.337a14.214 14.214 0 00-15.292.178" class="cls-68" transform="translate(173.985 152.242)"/>
      <path id="Path_1230" d="M445.172 393.738q-.312 11.074 10.037 15.522a148.13 148.13 0 01-20.747-10.318 6.815 6.815 0 1110.71-5.2" class="cls-68" transform="translate(157.451 142.891)"/>
      <path id="Path_1231" fill="#fffbe5" fill-rule="evenodd" d="M469.43 398.789q5.022 2.989.714 5.234a15.832 15.832 0 01-14.848-.547 15.037 15.037 0 01-7.308-12.622c-.114-3.562.865-4.314 4.352-2.326q11.1 6.8 17.09 10.261" transform="translate(167.086 143.422)"/>
      <path id="Path_1232" d="M477.578 396.057a8.047 8.047 0 006.494 6.272 8.4 8.4 0 009.053-12.242 8.7 8.7 0 01.725-8.479q2.04-3.789-2.453-3.5a15.582 15.582 0 00-13.819 17.954" class="cls-70" transform="translate(184.336 137.928)"/>
      <path id="Path_1233" d="M437.745 363.995c5.551 16.51 15.965 17.1 15.374 7.279a23.875 23.875 0 00-24.969-22.465c-5.474.276-5.761 2.693-.73 5.2 6.178 3.324 9.064 6.4 10.324 9.989" class="cls-70" transform="translate(152.924 120.739)"/>
      <path id="Path_1234" d="M509.587 369.926c4.876 1.944 6.426.841 3.919-1.988a53.753 53.753 0 00-56.926-12.42q-9.322 3.6.373 6.824a81.263 81.263 0 0111.06 4.589 30.509 30.509 0 0026.671 2.348 20.6 20.6 0 0114.9.647" class="cls-70" transform="translate(169.451 122.691)"/>
      <path id="Path_1235" d="M430.834 374.908a.777.777 0 11-1.306-.841 28.484 28.484 0 0121.351-13 .778.778 0 01.146 1.549 26.908 26.908 0 00-20.191 12.288" class="cls-7" transform="translate(156.189 127.946)"/>
      <path id="Path_1236" d="M431.985 375.083a.777.777 0 01-1.153-1.041 23.512 23.512 0 0118.89-7.746.776.776 0 11-.089 1.55 21.992 21.992 0 00-17.648 7.237" class="cls-7" transform="translate(156.91 130.989)"/>
      <path id="Path_1237" fill="#944a30" fill-rule="evenodd" d="M424.026 369.7a1.224 1.224 0 10-1.618-1.836 10.749 10.749 0 01-13.079.888 1.224 1.224 0 10-1.353 2.04 13.21 13.21 0 0016.05-1.093m11.533-3.892a1.224 1.224 0 11.286-2.431 10.751 10.751 0 0011.263-6.708 1.224 1.224 0 112.272.909 13.206 13.206 0 01-13.821 8.23zm-4.376 11.755l3.365-1.05c1.653-.516 3.116-.571 3.878-.111.719.436.727 1.385.2 2.58a21.843 21.843 0 01-1.966 3.254c-.274.4-.5.739-.7.995q.566 1.959 1.119 3.754.678 2.208 1.353 4.217a1.1 1.1 0 01-2.091.7q-.676-2.018-1.369-4.268-.557-1.811-1.117-3.746c-.311-.1-.689-.243-1.142-.416a21.759 21.759 0 01-3.465-1.56c-1.119-.679-1.655-1.464-1.312-2.231.351-.812 1.592-1.599 3.247-2.116z" transform="translate(143.298 124.915)"/>
      <path id="Path_1240" d="M308.056 310.629a10.285 10.285 0 006.677-.709 5.645 5.645 0 00-1.382 4.2 3.924 3.924 0 003.684-1.187 3.415 3.415 0 00-.133 4.038q2.194-.409 4.022-3.914.862 4.4 3.28 5.436a3.755 3.755 0 00.881-3.1 9.934 9.934 0 004.286 3.517 4.4 4.4 0 00-.221-2.862q2.763 2.29 4.6 2.4a6.558 6.558 0 00-1.885-3.429q3 1.525 4.569 1.081-.828-2.606-5.363-5.03a7.588 7.588 0 004.982-.639 7.566 7.566 0 00-6.558-3.359 8.718 8.718 0 005.509-2.6 6.429 6.429 0 00-6-.871 3.888 3.888 0 002.367-2.191 4.265 4.265 0 00-5.7.6 4.872 4.872 0 00.536-3.879q-2.258.355-4.027 3.99a5.9 5.9 0 00-3.026-5.7 6.215 6.215 0 00-.033 4.135 12.332 12.332 0 00-4.569-5.823 7.528 7.528 0 001.361 6.051q-2.023-2.765-7.456-4a16.825 16.825 0 003.433 4.63 14.6 14.6 0 00-5.707-2.364 9.306 9.306 0 003.633 2.977q-4.4-1.652-6.548-.785a13.9 13.9 0 005.2 2.62 7.694 7.694 0 00-4.953 1.5 15.542 15.542 0 007.548 2 5.389 5.389 0 00-3.01 3.27" class="cls-27" transform="translate(82.199 89.035)"/>
      <path id="Path_1241" d="M318.167 300.765c2.911 1.363 4.523 3.767 3.6 5.369s-4.03 1.8-6.941.436-4.524-3.765-3.6-5.369 4.032-1.8 6.943-.436" class="cls-60" transform="translate(86.71 92.04)"/>
      <path id="Path_1242" d="M316.528 300.69c1.537.666 2.464 1.764 2.069 2.451s-1.964.7-3.5.038-2.466-1.764-2.07-2.451 1.964-.7 3.5-.038" class="cls-61" transform="translate(87.866 92.241)"/>
      <path id="Path_1243" d="M324.726 336.248a6.872 6.872 0 004.458-.474 3.768 3.768 0 00-.923 2.808 2.619 2.619 0 002.459-.793 2.284 2.284 0 00-.089 2.7q1.466-.274 2.686-2.615.576 2.934 2.19 3.63a2.512 2.512 0 00.589-2.069 6.63 6.63 0 002.861 2.35 2.924 2.924 0 00-.146-1.912 5.911 5.911 0 003.073 1.6 4.381 4.381 0 00-1.258-2.289 4.6 4.6 0 003.053.722q-.554-1.74-3.583-3.359a5.069 5.069 0 003.327-.427 5.043 5.043 0 00-4.379-2.242 5.821 5.821 0 003.679-1.736 4.3 4.3 0 00-4.009-.582 2.587 2.587 0 001.58-1.461 2.847 2.847 0 00-3.8.4 3.242 3.242 0 00.357-2.589q-1.506.236-2.688 2.664a3.939 3.939 0 00-2.02-3.808 4.146 4.146 0 00-.022 2.761 8.239 8.239 0 00-3.053-3.887 5.029 5.029 0 00.909 4.041Q328.625 327.827 325 327a11.244 11.244 0 002.293 3.092 9.762 9.762 0 00-3.811-1.579 6.213 6.213 0 002.418 1.987q-2.939-1.1-4.373-.525a9.272 9.272 0 003.473 1.753 5.145 5.145 0 00-3.308 1 10.387 10.387 0 005.039 1.334 3.6 3.6 0 00-2.009 2.185" class="cls-27" transform="translate(92.91 107.161)"/>
      <path id="Path_1244" d="M331.477 329.661c1.944.909 3.019 2.515 2.4 3.586s-2.691 1.2-4.636.29-3.019-2.515-2.4-3.586 2.693-1.2 4.636-.29" class="cls-60" transform="translate(95.922 109.167)"/>
      <path id="Path_1245" d="M330.382 329.611c1.027.444 1.645 1.177 1.38 1.637s-1.311.47-2.337.024-1.647-1.177-1.382-1.636 1.311-.471 2.339-.025" class="cls-61" transform="translate(96.694 109.301)"/>
      <path id="Path_1246" d="M147.748 330.436A6.87 6.87 0 00148.4 326a3.766 3.766 0 002.488 1.593 2.614 2.614 0 00-.154-2.578 2.282 2.282 0 002.589.758q.1-1.485-1.86-3.253 2.984.176 4.062-1.214a2.511 2.511 0 00-1.856-1.087 6.626 6.626 0 002.989-2.183 2.924 2.924 0 00-1.888-.335 5.908 5.908 0 002.318-2.578 4.39 4.39 0 00-2.531.647 4.6 4.6 0 001.465-2.77q-1.823.1-4.147 2.629a5.077 5.077 0 00.419-3.327 5.05 5.05 0 00-3.267 3.679 5.824 5.824 0 00-.76-4 4.3 4.3 0 00-1.564 3.736 2.6 2.6 0 00-1.022-1.9 2.846 2.846 0 00-.563 3.783 3.251 3.251 0 00-2.42-.993q-.145 1.518 1.909 3.268a3.94 3.94 0 00-4.192 1.006 4.152 4.152 0 002.669.711 8.247 8.247 0 00-4.528 1.985 5.034 5.034 0 004.141.129q-2.128.845-3.832 4.152a11.264 11.264 0 003.567-1.449 9.743 9.743 0 00-2.48 3.3 6.237 6.237 0 002.531-1.853q-1.8 2.573-1.6 4.1a9.259 9.259 0 002.561-2.924 5.148 5.148 0 00.141 3.452 10.377 10.377 0 002.553-4.546 3.6 3.6 0 001.612 2.491" class="cls-27" transform="translate(-14.429 99.153)"/>
      <path id="Path_1247" d="M143.589 317.606c1.366-1.655 3.189-2.3 4.073-1.433s.49 2.907-.876 4.562-3.191 2.3-4.073 1.433-.49-2.907.876-4.562" class="cls-60" transform="translate(-12.266 101.385)"/>
      <path id="Path_1248" d="M143.363 317.539c.687-.884 1.552-1.3 1.931-.93s.127 1.387-.56 2.27-1.552 1.3-1.931.93-.129-1.387.56-2.27" class="cls-61" transform="translate(-12.04 101.787)"/>
      <path id="Path_1249" d="M135.507 322.637a10.284 10.284 0 01-5.721 3.514 5.634 5.634 0 013.662 2.488 3.925 3.925 0 01-3.643 1.307 3.418 3.418 0 012.57 3.118q-1.987 1.014-5.575-.646 2 4.006.722 6.307a3.752 3.752 0 01-2.589-1.915 9.917 9.917 0 01-1.247 5.4 4.4 4.4 0 01-1.572-2.4q-.79 3.5-2.183 4.709a6.555 6.555 0 01-.6-3.865q-1.447 3.042-2.961 3.644-.933-2.57 1.179-7.257a7.6 7.6 0 01-4.336 2.535 7.559 7.559 0 013.143-6.664 8.726 8.726 0 01-5.95 1.306 6.434 6.434 0 014.224-4.355 3.892 3.892 0 01-3.213-.29 4.269 4.269 0 014.877-3.005 4.855 4.855 0 01-2.791-2.743q2-1.1 5.625.7a5.894 5.894 0 01-1.085-6.362 6.208 6.208 0 012.55 3.254 12.352 12.352 0 01.067-7.4 7.536 7.536 0 012.615 5.626q-.086-3.427 3.462-7.722a16.807 16.807 0 01.106 5.764 14.606 14.606 0 013.078-5.356 9.321 9.321 0 01-1.06 4.576q2.477-4 4.706-4.619a13.883 13.883 0 01-2.518 5.245 7.7 7.7 0 014.838-1.836 15.55 15.55 0 01-4.757 6.191 5.386 5.386 0 014.379.752" class="cls-27" transform="translate(-30.942 99.115)"/>
      <path id="Path_1250" d="M116.655 322.373c-1.476 2.856-1.284 5.744.425 6.451s4.292-1.036 5.766-3.892 1.284-5.745-.427-6.451-4.29 1.036-5.764 3.892" class="cls-60" transform="translate(-27.858 102.872)"/>
      <path id="Path_1251" d="M116.82 321.552c-.812 1.468-.876 2.9-.143 3.2s1.986-.641 2.8-2.107.876-2.9.141-3.207-1.985.641-2.8 2.109" class="cls-61" transform="translate(-27.563 103.496)"/>
      <path id="Path_1252" d="M298.288 245.953a8.134 8.134 0 01-13.418 7.8 9.25 9.25 0 0113.418-7.8" class="cls-27" transform="translate(71.403 59.832)"/>
      <path id="Path_1253" d="M328.48 259.382a6.2 6.2 0 0010.234 5.95 7.055 7.055 0 00-10.234-5.95" class="cls-27" transform="translate(96.895 67.848)"/>
      <path id="Path_1254" d="M396.853 315.521a6.2 6.2 0 0010.234 5.948 7.055 7.055 0 00-10.234-5.948" class="cls-27" transform="translate(137.004 100.781)"/>
      <path id="Path_1255" d="M95.154 267.3a6.2 6.2 0 0010.234 5.95 7.053 7.053 0 00-10.234-5.95" class="cls-27" transform="translate(-39.978 72.493)"/>
      <path id="Path_1256" d="M139.826 258.869a3.681 3.681 0 01-6.072 3.532 4.186 4.186 0 016.072-3.532" class="cls-27" transform="translate(-17.245 67.73)"/>
      <path id="Path_1257" d="M99.894 310.092a3.68 3.68 0 01-6.07 3.53 4.184 4.184 0 016.07-3.53" class="cls-27" transform="translate(-40.669 97.778)"/>
      <path id="Path_1258" d="M402.618 391.426a6.2 6.2 0 0010.234 5.95 7.055 7.055 0 00-10.234-5.95" class="cls-27" transform="translate(140.386 145.308)"/>
      <path id="Path_1259" d="M443.119 381.8a3.128 3.128 0 01-5.16 3 3.558 3.558 0 015.16-3" class="cls-27" transform="translate(161.208 139.884)"/>
      <path id="Path_1260" d="M487.757 370.061a3.128 3.128 0 01-5.16 3 3.557 3.557 0 015.16-3" class="cls-27" transform="translate(187.394 132.997)"/>
    </g>
  </g>
</svg>
